<svg width="40" height="40" viewBox="0 0 40 40" fill="none" xmlns="http://www.w3.org/2000/svg">
<path d="M19.7782 0.00130752C23.5444 -0.0404727 27.2458 0.982069 30.4565 2.95124C33.6672 4.9204 36.2565 7.75616 37.9265 11.1321C39.5966 14.508 40.2794 18.2869 39.8964 22.0338C39.5134 25.7807 38.0802 29.3433 35.7616 32.3116C33.4431 35.2798 30.3336 37.533 26.7909 38.8119C23.2483 40.0907 19.4165 40.3433 15.7366 39.5404C12.0568 38.7375 8.67844 36.9118 5.99045 34.2735C3.30246 31.6352 1.41409 28.2915 0.542692 24.6273L4.41877 23.7055C5.11658 26.6398 6.62877 29.3174 8.78129 31.4301C10.9338 33.5428 13.6392 35.0048 16.5859 35.6478C19.5327 36.2907 22.6012 36.0885 25.4381 35.0644C28.2751 34.0403 30.7651 32.2359 32.6218 29.859C34.4784 27.4821 35.6262 24.6292 35.9329 21.6287C36.2396 18.6282 35.6928 15.6021 34.3554 12.8987C33.0181 10.1953 30.9445 7.92441 28.3735 6.34752C25.8024 4.77063 22.8383 3.95178 19.8224 3.98524L19.7782 0.00130752Z" fill="#5453E0"/>
</svg>

<svg xmlns="http://www.w3.org/2000/svg" width="40" height="40" fill="none"><path fill="#5453E0" d="M19.778.001A20 20 0 1 1 .543 24.627l3.876-.921a16.016 16.016 0 1 0 15.403-19.72L19.778 0Z"/></svg>